HIERARCHY
ROOT Hips
{
	OFFSET 0.000000 89.005402 0.000000
	CHANNELS 6 Xposition Yposition Zposition Xrotation Yrotation Zrotation
	JOINT Spine
	{
		OFFSET 0.116900 10.681000 0.373400
		CHANNELS 3 Xrotation Yrotation Zrotation
		JOINT Spine1
		{
			OFFSET 0.000000 13.840401 0.053500
			CHANNELS 3 Xrotation Yrotation Zrotation
			JOINT Spine2
			{
				OFFSET 0.000000 14.712700 -0.366200
				CHANNELS 3 Xrotation Yrotation Zrotation
				JOINT Neck
				{
					OFFSET 0.000000 35.415497 -3.314200
					CHANNELS 3 Xrotation Yrotation Zrotation
					JOINT Head
					{
						OFFSET 0.000000 16.899200 1.218300
						CHANNELS 3 Xrotation Yrotation Zrotation
						JOINT HeadTop_End
						{
							OFFSET 0.000000 22.206207 2.192500
							CHANNELS 3 Xrotation Yrotation Zrotation
							End Site
							{
								OFFSET 0.000000 22.314178 0.000000
							}
						}
					}
				}
				JOINT LeftShoulder
				{
					OFFSET 12.896400 26.716293 -4.548400
					CHANNELS 3 Xrotation Yrotation Zrotation
					JOINT LeftArm
					{
						OFFSET 19.027000 -4.857010 -1.718400
						CHANNELS 3 Xrotation Yrotation Zrotation
						JOINT LeftForeArm
						{
							OFFSET 24.179897 0.000000 0.000000
							CHANNELS 3 Xrotation Yrotation Zrotation
							JOINT LeftHand
							{
								OFFSET 27.156403 0.000000 0.000000
								CHANNELS 3 Xrotation Yrotation Zrotation
								JOINT LeftHandIndex1
								{
									OFFSET 16.441200 0.000000 0.000000
									CHANNELS 3 Xrotation Yrotation Zrotation
									JOINT LeftHandIndex2
									{
										OFFSET 4.821899 0.000000 0.000000
										CHANNELS 3 Xrotation Yrotation Zrotation
										JOINT LeftHandIndex3
										{
											OFFSET 6.386497 0.000000 0.000000
											CHANNELS 3 Xrotation Yrotation Zrotation
											JOINT LeftHandIndex4
											{
												OFFSET 5.188988 0.000000 0.000000
												CHANNELS 3 Xrotation Yrotation Zrotation
												End Site
												{
													OFFSET -0.178703 5.185913 0.000177
												}
											}
										}
									}
								}
								JOINT LeftHandThumb1
								{
									OFFSET 6.534897 -5.032593 5.900300
									CHANNELS 3 Xrotation Yrotation Zrotation
									JOINT LeftHandThumb2
									{
										OFFSET 3.818176 -2.204422 2.204423
										CHANNELS 3 Xrotation Yrotation Zrotation
										JOINT LeftHandThumb3
										{
											OFFSET 3.252098 -1.877594 1.877601
											CHANNELS 3 Xrotation Yrotation Zrotation
											JOINT LeftHandThumb4
											{
												OFFSET 5.251778 -3.032120 3.032117
												CHANNELS 3 Xrotation Yrotation Zrotation
												End Site
												{
													OFFSET 0.000023 6.780014 0.000000
												}
											}
										}
									}
								}
							}
						}
					}
				}
				JOINT RightShoulder
				{
					OFFSET -12.896300 26.716293 -4.548400
					CHANNELS 3 Xrotation Yrotation Zrotation
					JOINT RightArm
					{
						OFFSET -19.027000 -4.857010 -1.718400
						CHANNELS 3 Xrotation Yrotation Zrotation
						JOINT RightForeArm
						{
							OFFSET -24.179897 0.000000 0.000000
							CHANNELS 3 Xrotation Yrotation Zrotation
							JOINT RightHand
							{
								OFFSET -27.156403 0.000000 0.000000
								CHANNELS 3 Xrotation Yrotation Zrotation
								JOINT RightHandThumb1
								{
									OFFSET -6.591202 -4.852203 5.988100
									CHANNELS 3 Xrotation Yrotation Zrotation
									JOINT RightHandThumb2
									{
										OFFSET -3.818176 -2.204422 2.204423
										CHANNELS 3 Xrotation Yrotation Zrotation
										JOINT RightHandThumb3
										{
											OFFSET -3.252098 -1.877594 1.877601
											CHANNELS 3 Xrotation Yrotation Zrotation
											JOINT RightHandThumb4
											{
												OFFSET -5.251778 -3.032120 3.032117
												CHANNELS 3 Xrotation Yrotation Zrotation
												End Site
												{
													OFFSET -0.000023 6.780014 0.000000
												}
											}
										}
									}
								}
								JOINT RightHandIndex1
								{
									OFFSET -16.029404 0.000000 0.000000
									CHANNELS 3 Xrotation Yrotation Zrotation
									JOINT RightHandIndex2
									{
										OFFSET -5.213303 0.000000 0.000000
										CHANNELS 3 Xrotation Yrotation Zrotation
										JOINT RightHandIndex3
										{
											OFFSET -6.386528 0.000000 0.000000
											CHANNELS 3 Xrotation Yrotation Zrotation
											JOINT RightHandIndex4
											{
												OFFSET -5.189026 0.000000 0.000000
												CHANNELS 3 Xrotation Yrotation Zrotation
												End Site
												{
													OFFSET 0.236702 5.183624 0.001972
												}
											}
										}
									}
								}
							}
						}
					}
				}
			}
		}
	}
	JOINT LeftUpLeg
	{
		OFFSET 14.073000 -7.904099 -1.463000
		CHANNELS 3 Xrotation Yrotation Zrotation
		JOINT LeftLeg
		{
			OFFSET -0.109806 -34.073280 4.093200
			CHANNELS 3 Xrotation Yrotation Zrotation
			JOINT LeftFoot
			{
				OFFSET 0.109806 -29.899420 -6.319000
				CHANNELS 3 Xrotation Yrotation Zrotation
				JOINT LeftToeBase
				{
					OFFSET 1.551100 -14.988700 20.535801
					CHANNELS 3 Xrotation Yrotation Zrotation
					JOINT LeftToe_End
					{
						OFFSET 0.221200 0.570800 13.248301
						CHANNELS 3 Xrotation Yrotation Zrotation
						End Site
						{
							OFFSET 0.000000 13.262435 0.000000
						}
					}
				}
			}
		}
	}
	JOINT RightUpLeg
	{
		OFFSET -13.839300 -7.904099 -1.463000
		CHANNELS 3 Xrotation Yrotation Zrotation
		JOINT RightLeg
		{
			OFFSET 0.109694 -34.073219 4.093300
			CHANNELS 3 Xrotation Yrotation Zrotation
			JOINT RightFoot
			{
				OFFSET -0.109694 -29.899384 -6.319200
				CHANNELS 3 Xrotation Yrotation Zrotation
				JOINT RightToeBase
				{
					OFFSET -1.551100 -14.988700 20.535801
					CHANNELS 3 Xrotation Yrotation Zrotation
					JOINT RightToe_End
					{
						OFFSET -0.221200 0.570900 13.248299
						CHANNELS 3 Xrotation Yrotation Zrotation
						End Site
						{
							OFFSET 0.000000 13.262440 0.000000
						}
					}
				}
			}
		}
	}
}
MOTION
Frames: 5
Frame Time: 0.033333
-0.608194 79.988396 0.469565 -6.088544 -43.050365 -3.827352 5.849173 4.641442 -1.434437 11.836146 9.038381 -3.081385 11.836142 9.038382 -3.081387 -4.303065 -1.272957 0.206308 -6.271935 20.437792 -0.377163 -0.000000 -0.000000 0.000000 1.392457 -0.696063 -7.877846 -14.241750 2.368526 -64.018844 10.466053 -47.320435 7.633471 16.278969 0.618687 18.098835 -0.902004 -6.980969 -3.808386 0.031291 0.797047 -16.417997 -0.000002 -0.000003 -0.000002 0.000001 0.000001 0.000001 9.163541 4.814130 -5.499007 -0.334135 0.035362 0.784150 -0.000003 -0.000004 0.000005 0.000003 -0.000000 -0.000000 1.410918 9.461492 9.792750 1.111348 -24.435220 60.320870 -7.007870 41.772730 8.690740 6.561401 12.319960 11.498001 -8.895836 -4.903166 -0.383702 7.904797 -19.192475 -2.856938 0.000003 0.000015 -0.000004 0.000001 -0.000001 -0.000002 -1.085578 -1.215450 4.525312 0.142101 -1.115516 16.942668 0.000002 -0.000002 -0.000009 0.000000 0.000000 0.000001 -28.460683 5.201729 14.291031 34.733421 -15.265850 0.149019 -3.732214 1.953213 -9.004728 -2.319087 -3.216969 0.802956 -0.000000 0.000001 0.000000 1.229768 -14.831271 -17.016175 32.017068 -7.523620 -1.298090 -24.692102 -6.073227 20.594129 -1.784966 -0.356706 0.333182 -0.000000 0.000000 0.000000 
-0.322059 79.047829 -0.617460 -2.816542 -38.964330 -3.666186 5.970733 4.100948 -1.102562 12.028905 7.969565 -2.312610 12.028906 7.969559 -2.312610 -3.504909 -0.982124 -0.857576 -9.589697 15.929999 1.362803 -0.000000 0.000000 -0.000000 1.896298 -2.723819 -8.493082 -21.119887 -7.026348 -55.096879 7.271824 -29.212811 2.532089 13.534700 -6.769449 15.564155 0.352216 -8.930974 3.163335 -0.244237 0.757011 -17.437326 -0.000002 -0.000004 -0.000000 -0.000001 0.000002 -0.000004 7.651287 1.504518 -2.449094 -0.384576 0.082421 0.628289 -0.000002 -0.000011 0.000002 -0.000002 -0.000000 -0.000001 -0.113124 13.459312 10.423856 -7.306270 -14.527633 56.675335 1.795087 37.310636 0.977677 11.840410 7.431539 -0.041965 -9.409705 -3.024936 0.153063 10.987002 -15.845788 -3.792028 0.000001 0.000015 -0.000002 0.000000 0.000001 0.000001 -2.899998 -0.611503 3.416894 -0.170028 -1.529855 15.468106 0.000002 -0.000001 -0.000008 0.000000 0.000000 0.000000 -35.248260 2.441720 14.966017 39.403320 -15.209100 1.731788 -3.839666 2.162015 -11.098698 -2.462122 -3.508938 1.019260 -0.000000 -0.000003 -0.000000 -3.046158 -17.770346 -14.639493 38.102668 -2.960817 -1.069456 -28.929987 -5.741078 13.954777 -4.805995 -2.039687 2.463364 0.000000 0.000001 -0.000000 
0.084738 77.316353 -1.344740 2.671043 -35.785588 -3.836582 5.998875 3.584912 -0.962748 12.047690 6.951262 -1.839140 12.047692 6.951244 -1.839135 -2.724790 -0.577666 -1.532153 -13.323122 11.449510 3.320541 -0.000001 0.000000 -0.000000 2.637447 -3.797317 -8.481170 -21.208607 -9.570947 -45.815649 4.113559 -20.953296 -0.841303 7.340199 -10.268779 13.322176 1.245956 -9.960418 6.834462 -0.594655 0.604749 -19.638001 -0.000005 -0.000004 -0.000002 -0.000001 0.000000 -0.000001 6.361709 -1.370783 0.820682 -0.431509 0.207327 0.484656 -0.000006 -0.000007 0.000001 -0.000002 0.000003 -0.000002 -0.538571 17.801063 10.032861 -16.709470 -6.810459 49.477682 5.375989 28.631156 -2.326526 10.035820 2.507512 -5.141627 -10.131248 -1.068703 0.577355 14.364019 -12.235345 -5.146786 0.000001 0.000013 -0.000007 -0.000002 -0.000001 -0.000001 -4.393722 0.743140 2.814397 -0.494715 -1.972959 13.515163 0.000001 -0.000001 -0.000005 -0.000000 -0.000001 0.000001 -45.557512 -0.483405 16.302321 47.234979 -14.294108 2.783401 -3.989575 1.647843 -9.166199 -2.570450 -3.581115 1.080483 0.000000 -0.000003 -0.000000 -10.007102 -19.543220 -10.855830 46.165372 -0.165396 -2.162208 -32.181372 -5.115543 8.812860 -7.832552 -4.188269 5.391347 0.000001 -0.000002 -0.000000 
0.241694 74.979637 -1.709631 11.216291 -33.708018 -1.784102 5.626599 3.194494 -1.067997 11.282926 6.232997 -1.797143 11.282921 6.233001 -1.797143 -2.972713 -0.377770 -1.769872 -17.296988 6.760369 5.070475 0.000000 -0.000001 -0.000000 3.539186 -3.911650 -7.507214 -14.267542 -2.556872 -37.324597 2.041889 -23.485448 -5.512509 0.306503 -7.514229 11.954311 1.051650 -9.282285 4.594398 -1.098599 0.137992 -24.818889 -0.000003 -0.000003 -0.000004 0.000000 0.000001 -0.000001 5.523343 -3.252357 3.842592 0.009994 1.352078 0.517632 -0.000005 -0.000008 0.000000 -0.000002 -0.000001 -0.000000 -0.113683 21.225486 8.331831 -21.026983 -6.378674 41.100059 6.225544 23.714948 -2.958538 5.907957 -4.580439 -4.780056 -9.835103 0.430984 1.372780 17.488365 -8.959729 -6.719145 -0.000001 0.000014 -0.000006 -0.000002 -0.000001 -0.000002 -5.258797 1.902533 4.575828 -0.849738 -2.173818 13.619669 0.000000 0.000000 -0.000011 0.000001 0.000000 0.000001 -58.457335 -3.948201 16.566660 53.146197 -14.677668 3.417994 -3.327228 1.401772 -8.178393 -2.607759 -3.200819 0.826518 0.000000 0.000001 0.000000 -20.563411 -19.424757 -8.137588 55.424369 0.872465 -3.048049 -35.268208 -4.563093 4.570862 -10.743033 -6.776912 8.502890 0.000000 -0.000000 -0.000000 
0.258646 71.758072 -1.704884 23.263904 -31.882664 2.065881 4.824197 3.015736 -1.290662 9.672366 5.988195 -2.033085 9.672362 5.988197 -2.033084 -4.767195 -0.655488 -1.935807 -20.441035 2.207718 5.839270 -0.000001 -0.000001 0.000001 4.687295 -2.776219 -6.772836 -2.946975 12.017907 -32.233903 2.413876 -31.809755 -11.006939 -3.874823 -0.172430 11.438702 -0.072606 -7.260786 -3.176953 -1.766647 -0.647297 -33.115260 -0.000009 -0.000006 -0.000003 -0.000006 -0.000000 -0.000000 5.149059 -3.995774 6.023609 0.893423 3.365975 0.702858 -0.000006 -0.000007 0.000002 -0.000001 -0.000002 0.000000 0.718728 21.613113 6.186822 -19.131450 -14.913643 33.396193 8.712420 23.307532 -3.734254 6.947394 -12.286567 -1.342858 -6.841089 1.067315 3.390378 19.640805 -6.679986 -8.109844 0.000005 0.000015 -0.000004 -0.000001 -0.000002 -0.000003 -5.111550 1.621911 10.367345 -1.351033 -1.792663 19.430549 0.000001 0.000001 -0.000006 0.000000 -0.000000 0.000001 -74.741920 -8.085152 15.626008 59.427973 -14.904163 3.750758 -3.479021 1.291500 -7.521123 -2.637417 -2.778180 0.544350 -0.000000 0.000001 0.000000 -33.985235 -17.657330 -6.079723 63.885512 0.042731 -2.636764 -38.141317 -5.176438 3.283164 -12.722732 -7.520639 9.616226 -0.000000 0.000003 0.000000 
